<?xml version="1.0" encoding="UTF-8"?>
<svg width="111px" height="111px" viewBox="0 0 111 111" version="1.1" xmlns="http://www.w3.org/2000/svg" xmlns:xlink="http://www.w3.org/1999/xlink">
    <!-- Generator: sketchtool 41 (35326) - http://www.bohemiancoding.com/sketch -->
    <title>C652E60F-B901-4390-B18C-4BC55C21EB3F</title>
    <desc>Created with sketchtool.</desc>
    <defs></defs>
    <g id="Form-Pages" stroke="none" stroke-width="1" fill="none" fill-rule="evenodd">
        <g id="1_2_Offices" transform="translate(-79.000000, -105.000000)">
            <g id="Sidebar" transform="translate(25.000000, 89.000000)">
                <g id="Progress">
                    <g id="2/8" transform="translate(58.000000, 20.000000)">
                        <g id="Group-5" stroke-width="8">
                            <path d="M51.5,103 C73.6348232,103 92.508098,89.0356518 99.7906267,69.4361533 C101.865956,63.8508126 103,57.8078415 103,51.5 C103,46.2609959 102.217713,41.2047047 100.763578,36.441565 C99.3649174,31.8601359 97.3446918,27.549918 94.8011766,23.6091865 C92.8779466,20.6294783 90.6555343,17.8610179 88.1764247,15.3462903 C85.2301465,12.3576822 81.9213104,9.72744485 78.3212294,7.52689126 C74.2135557,5.01607108 69.7267192,3.06464292 64.9666502,1.77853702 C60.6740712,0.618740548 56.1592929,0 51.5,0 C23.0573354,0 0,23.0573354 0,51.5 C0,79.9426646 23.0573354,103 51.5,103 Z" id="Oval-1" stroke="#E9F0F5" opacity="0.52"></path>
                            <path d="M103,51 C103,45.81186 102.225308,40.804659 100.785291,36.0877634 C99.4002094,31.5508142 97.3995977,27.2824431 94.8807768,23.3799711 C92.9762189,20.4291921 90.7753835,17.68761 88.3203429,15.1972972 C85.4026694,12.2377047 82.1259579,9.63300363 78.5608291,7.45381465 C74.4930357,4.96737136 70.0497608,3.03488911 65.335906,1.76126967 C61.0850025,0.612733358 56.614057,0 52,0" id="Oval-1-Copy-2" stroke="#FFFFFF"></path>
                            <path d="M88,15 C85.0277285,12.0788301 81.6897004,9.50794427 78.0578579,7.35704636 C73.9139445,4.90288303 69.3875233,2.99548901 64.5854589,1.73840419 C60.2550088,0.604778618 55.7003992,0 51,0" id="Oval-1-Copy" stroke="#FFFFFF"></path>
                        </g>
                        <g id="Group-7" transform="translate(29.000000, 27.000000)" font-family="OpenSans, Open Sans" fill="#FFFFFF" font-weight="normal">
                            <g id="Group-6">
                                <text id="2" font-size="33">
                                    <tspan x="0" y="35">2</tspan>
                                </text>
                                <text id="/-8" font-size="17" letter-spacing="0.485714287">
                                    <tspan x="23" y="23">/ 8</tspan>
                                </text>
                            </g>
                        </g>
                    </g>
                </g>
            </g>
        </g>
    </g>
</svg>